<?xml version="1.0" encoding="UTF-8" standalone="no"?>
<!-- Created with Inkscape (http://www.inkscape.org/) -->

<svg
   xmlns:dc="http://purl.org/dc/elements/1.1/"
   xmlns:cc="http://creativecommons.org/ns#"
   xmlns:rdf="http://www.w3.org/1999/02/22-rdf-syntax-ns#"
   xmlns:svg="http://www.w3.org/2000/svg"
   xmlns="http://www.w3.org/2000/svg"
   xmlns:sodipodi="http://sodipodi.sourceforge.net/DTD/sodipodi-0.dtd"
   xmlns:inkscape="http://www.inkscape.org/namespaces/inkscape"
   width="16"
   height="16"
   viewBox="0 0 4.2333332 4.2333332"
   version="1.1"
   id="svg821"
   inkscape:version="0.92.3 (2405546, 2018-03-11)"
   sodipodi:docname="icon.svg">
  <defs
     id="defs815" />
  <sodipodi:namedview
     id="base"
     pagecolor="#ffffff"
     bordercolor="#666666"
     borderopacity="1.0"
     inkscape:pageopacity="0.0"
     inkscape:pageshadow="2"
     inkscape:zoom="22.4"
     inkscape:cx="21.206409"
     inkscape:cy="6.8946992"
     inkscape:document-units="px"
     inkscape:current-layer="layer1"
     showgrid="true"
     units="px"
     inkscape:window-width="1680"
     inkscape:window-height="985"
     inkscape:window-x="0"
     inkscape:window-y="0"
     inkscape:window-maximized="1">
    <inkscape:grid
       type="xygrid"
       id="grid1366"
       empspacing="4" />
  </sodipodi:namedview>
  <metadata
     id="metadata818">
    <rdf:RDF>
      <cc:Work
         rdf:about="">
        <dc:format>image/svg+xml</dc:format>
        <dc:type
           rdf:resource="http://purl.org/dc/dcmitype/StillImage" />
        <dc:title></dc:title>
      </cc:Work>
    </rdf:RDF>
  </metadata>
  <g
     inkscape:label="Layer 1"
     inkscape:groupmode="layer"
     id="layer1"
     transform="translate(0,-292.76667)">
    <path
       style="opacity:1;fill:#000000;fill-opacity:1;stroke:none;stroke-width:6.40000057;stroke-miterlimit:4;stroke-dasharray:6.40000011, 6.40000010999999969;stroke-dashoffset:0;stroke-opacity:1"
       d="M 1 1 L 1 7 L 2 7 L 3.5 5 L 4.5 5 L 6 7 L 7 7 L 7 1 L 6 1 L 6 5.3320312 L 5 4 L 3 4 L 2 5.3320312 L 2 1 L 1 1 z M 9 1 L 9 7 L 10 7 L 10 5 L 14 5 L 14 7 L 15 7 L 15 1 L 10 1 L 9 1 z M 10 2 L 14 2 L 14 4 L 10 4 L 10 2 z "
       transform="matrix(0.26458333,0,0,0.26458333,0,292.76667)"
       id="rect1386" />
    <path
       inkscape:connector-curvature="0"
       style="opacity:1;fill:#000000;fill-opacity:1;stroke:none;stroke-width:1.69333339;stroke-miterlimit:4;stroke-dasharray:1.69333331, 1.69333331000000009;stroke-dashoffset:0;stroke-opacity:1"
       d="m 0.26458333,295.14792 v 1.5875 h 0.2645834 l 0.3968749,-0.52917 H 1.1906251 l 0.3968748,0.52917 h 0.2645833 v -1.5875 H 1.5875 v 1.14618 L 1.3229166,295.94167 H 0.79375002 l -0.26458329,0.35243 v -1.14618 z m 2.11666667,0 v 1.5875 h 0.2645833 v -0.52917 h 1.0583332 v 0.52917 h 0.2645833 v -1.5875 H 2.6458333 Z m 0.2645833,0.26458 h 1.0583332 v 0.52917 H 2.6458333 Z"
       id="rect1386-2" />
  </g>
</svg>
